<mxfile>
    <diagram id="hLZUvJtOtJVjxeYtELMs" name="API设计">
        <mxGraphModel dx="1465" dy="958" grid="0" gridSize="10" guides="1" tooltips="1" connect="1" arrows="1" fold="1" page="0" pageScale="1" pageWidth="827" pageHeight="1169" math="0" shadow="0">
            <root>
                <mxCell id="0"/>
                <mxCell id="1" parent="0"/>
                <mxCell id="4" value="" style="edgeStyle=orthogonalEdgeStyle;rounded=0;orthogonalLoop=1;jettySize=auto;html=1;" parent="1" source="2" target="3" edge="1">
                    <mxGeometry relative="1" as="geometry"/>
                </mxCell>
                <mxCell id="2" value="开始请求某个接口" style="rounded=0;whiteSpace=wrap;html=1;" parent="1" vertex="1">
                    <mxGeometry x="247" y="110" width="120" height="60" as="geometry"/>
                </mxCell>
                <mxCell id="6" value="" style="edgeStyle=orthogonalEdgeStyle;rounded=0;orthogonalLoop=1;jettySize=auto;html=1;" parent="1" source="3" target="5" edge="1">
                    <mxGeometry relative="1" as="geometry"/>
                </mxCell>
                <mxCell id="3" value="拼接公共变量字符串&lt;br&gt;(如Time和接口名之类的)" style="rounded=0;whiteSpace=wrap;html=1;" parent="1" vertex="1">
                    <mxGeometry x="247" y="196" width="120" height="60" as="geometry"/>
                </mxCell>
                <mxCell id="162" value="" style="edgeStyle=orthogonalEdgeStyle;rounded=0;orthogonalLoop=1;jettySize=auto;html=1;" parent="1" source="5" target="161" edge="1">
                    <mxGeometry relative="1" as="geometry"/>
                </mxCell>
                <mxCell id="5" value="公共变量后面再加上该接口特有的私有变量得到原始变量集字符串" style="rounded=0;whiteSpace=wrap;html=1;" parent="1" vertex="1">
                    <mxGeometry x="247" y="276" width="120" height="60" as="geometry"/>
                </mxCell>
                <mxCell id="10" value="" style="edgeStyle=orthogonalEdgeStyle;rounded=0;orthogonalLoop=1;jettySize=auto;html=1;" parent="1" source="7" target="9" edge="1">
                    <mxGeometry relative="1" as="geometry"/>
                </mxCell>
                <mxCell id="7" value="使用SHA1散列加密字符串的到签名sig" style="whiteSpace=wrap;html=1;rounded=0;" parent="1" vertex="1">
                    <mxGeometry x="247" y="473" width="120" height="60" as="geometry"/>
                </mxCell>
                <mxCell id="12" value="" style="edgeStyle=orthogonalEdgeStyle;rounded=0;orthogonalLoop=1;jettySize=auto;html=1;" parent="1" source="9" target="11" edge="1">
                    <mxGeometry relative="1" as="geometry"/>
                </mxCell>
                <mxCell id="9" value="把sig附带post请求一起发送到API接口" style="whiteSpace=wrap;html=1;rounded=0;" parent="1" vertex="1">
                    <mxGeometry x="247" y="553" width="120" height="60" as="geometry"/>
                </mxCell>
                <mxCell id="16" value="" style="edgeStyle=orthogonalEdgeStyle;rounded=0;orthogonalLoop=1;jettySize=auto;html=1;" parent="1" source="11" target="15" edge="1">
                    <mxGeometry relative="1" as="geometry"/>
                </mxCell>
                <mxCell id="17" value="不合法" style="edgeLabel;html=1;align=center;verticalAlign=middle;resizable=0;points=[];" parent="16" vertex="1" connectable="0">
                    <mxGeometry x="0.149" y="2" relative="1" as="geometry">
                        <mxPoint x="11" y="-2" as="offset"/>
                    </mxGeometry>
                </mxCell>
                <mxCell id="19" value="合法" style="edgeStyle=orthogonalEdgeStyle;rounded=0;orthogonalLoop=1;jettySize=auto;html=1;" parent="1" source="11" target="18" edge="1">
                    <mxGeometry relative="1" as="geometry"/>
                </mxCell>
                <mxCell id="11" value="服务器重复客户端签名流程&lt;br&gt;检验sig是否合法" style="rhombus;whiteSpace=wrap;html=1;rounded=0;" parent="1" vertex="1">
                    <mxGeometry x="218" y="653" width="178" height="117" as="geometry"/>
                </mxCell>
                <mxCell id="15" value="返回错误信息" style="whiteSpace=wrap;html=1;rounded=0;" parent="1" vertex="1">
                    <mxGeometry x="40" y="681.5" width="120" height="60" as="geometry"/>
                </mxCell>
                <mxCell id="18" value="返回API请求内容" style="whiteSpace=wrap;html=1;rounded=0;" parent="1" vertex="1">
                    <mxGeometry x="247" y="807" width="120" height="60" as="geometry"/>
                </mxCell>
                <mxCell id="20" value="请求流程" style="text;html=1;strokeColor=none;fillColor=none;align=center;verticalAlign=middle;whiteSpace=wrap;rounded=0;fontSize=25;" parent="1" vertex="1">
                    <mxGeometry x="247" y="40" width="120" height="40" as="geometry"/>
                </mxCell>
                <mxCell id="21" value="API列表" style="shape=table;html=1;whiteSpace=wrap;startSize=30;container=1;collapsible=0;childLayout=tableLayout;fixedRows=1;rowLines=0;fontStyle=1;align=center;fontSize=25;" parent="1" vertex="1">
                    <mxGeometry x="433" y="321.5" width="504" height="420" as="geometry"/>
                </mxCell>
                <mxCell id="22" value="" style="shape=partialRectangle;html=1;whiteSpace=wrap;collapsible=0;dropTarget=0;pointerEvents=0;fillColor=none;top=0;left=0;bottom=1;right=0;points=[[0,0.5],[1,0.5]];portConstraint=eastwest;" parent="21" vertex="1">
                    <mxGeometry y="30" width="504" height="30" as="geometry"/>
                </mxCell>
                <mxCell id="23" value="" style="shape=partialRectangle;html=1;whiteSpace=wrap;connectable=0;fillColor=none;top=0;left=0;bottom=0;right=0;overflow=hidden;" parent="22" vertex="1">
                    <mxGeometry width="53" height="30" as="geometry"/>
                </mxCell>
                <mxCell id="24" value="" style="shape=partialRectangle;html=1;whiteSpace=wrap;connectable=0;fillColor=none;top=0;left=0;bottom=0;right=0;align=left;spacingLeft=6;overflow=hidden;" parent="22" vertex="1">
                    <mxGeometry x="53" width="113" height="30" as="geometry"/>
                </mxCell>
                <mxCell id="40" value="" style="shape=partialRectangle;html=1;whiteSpace=wrap;connectable=0;fillColor=none;top=0;left=0;bottom=0;right=0;align=left;spacingLeft=6;overflow=hidden;" parent="22" vertex="1">
                    <mxGeometry x="166" width="244" height="30" as="geometry"/>
                </mxCell>
                <mxCell id="164" value="" style="shape=partialRectangle;html=1;whiteSpace=wrap;connectable=0;fillColor=none;top=0;left=0;bottom=0;right=0;align=left;spacingLeft=6;overflow=hidden;" parent="22" vertex="1">
                    <mxGeometry x="410" width="94" height="30" as="geometry"/>
                </mxCell>
                <mxCell id="188" value="" style="shape=partialRectangle;html=1;whiteSpace=wrap;collapsible=0;dropTarget=0;pointerEvents=0;fillColor=none;top=0;left=0;bottom=1;right=0;points=[[0,0.5],[1,0.5]];portConstraint=eastwest;" parent="21" vertex="1">
                    <mxGeometry y="60" width="504" height="30" as="geometry"/>
                </mxCell>
                <mxCell id="189" value="方式" style="shape=partialRectangle;html=1;whiteSpace=wrap;connectable=0;fillColor=none;top=0;left=0;bottom=0;right=0;overflow=hidden;" parent="188" vertex="1">
                    <mxGeometry width="53" height="30" as="geometry"/>
                </mxCell>
                <mxCell id="190" value="名称" style="shape=partialRectangle;html=1;whiteSpace=wrap;connectable=0;fillColor=none;top=0;left=0;bottom=0;right=0;align=left;spacingLeft=6;overflow=hidden;" parent="188" vertex="1">
                    <mxGeometry x="53" width="113" height="30" as="geometry"/>
                </mxCell>
                <mxCell id="191" value="解释" style="shape=partialRectangle;html=1;whiteSpace=wrap;connectable=0;fillColor=none;top=0;left=0;bottom=0;right=0;align=left;spacingLeft=6;overflow=hidden;" parent="188" vertex="1">
                    <mxGeometry x="166" width="244" height="30" as="geometry"/>
                </mxCell>
                <mxCell id="192" value="私有变量数量" style="shape=partialRectangle;html=1;whiteSpace=wrap;connectable=0;fillColor=none;top=0;left=0;bottom=0;right=0;align=left;spacingLeft=6;overflow=hidden;" parent="188" vertex="1">
                    <mxGeometry x="410" width="94" height="30" as="geometry"/>
                </mxCell>
                <mxCell id="25" value="" style="shape=partialRectangle;html=1;whiteSpace=wrap;collapsible=0;dropTarget=0;pointerEvents=0;fillColor=none;top=0;left=0;bottom=0;right=0;points=[[0,0.5],[1,0.5]];portConstraint=eastwest;" parent="21" vertex="1">
                    <mxGeometry y="90" width="504" height="30" as="geometry"/>
                </mxCell>
                <mxCell id="26" value="POST" style="shape=partialRectangle;html=1;whiteSpace=wrap;connectable=0;fillColor=none;top=0;left=0;bottom=0;right=0;overflow=hidden;" parent="25" vertex="1">
                    <mxGeometry width="53" height="30" as="geometry"/>
                </mxCell>
                <mxCell id="27" value="system_info" style="shape=partialRectangle;html=1;whiteSpace=wrap;connectable=0;fillColor=none;top=0;left=0;bottom=0;right=0;align=left;spacingLeft=6;overflow=hidden;" parent="25" vertex="1">
                    <mxGeometry x="53" width="113" height="30" as="geometry"/>
                </mxCell>
                <mxCell id="41" value="获取系统运行情况" style="shape=partialRectangle;html=1;whiteSpace=wrap;connectable=0;fillColor=none;top=0;left=0;bottom=0;right=0;align=left;spacingLeft=6;overflow=hidden;" parent="25" vertex="1">
                    <mxGeometry x="166" width="244" height="30" as="geometry"/>
                </mxCell>
                <mxCell id="165" value="0" style="shape=partialRectangle;html=1;whiteSpace=wrap;connectable=0;fillColor=none;top=0;left=0;bottom=0;right=0;align=left;spacingLeft=6;overflow=hidden;" parent="25" vertex="1">
                    <mxGeometry x="410" width="94" height="30" as="geometry"/>
                </mxCell>
                <mxCell id="63" value="" style="shape=partialRectangle;html=1;whiteSpace=wrap;collapsible=0;dropTarget=0;pointerEvents=0;fillColor=none;top=0;left=0;bottom=0;right=0;points=[[0,0.5],[1,0.5]];portConstraint=eastwest;" parent="21" vertex="1">
                    <mxGeometry y="120" width="504" height="30" as="geometry"/>
                </mxCell>
                <mxCell id="64" value="POST" style="shape=partialRectangle;html=1;whiteSpace=wrap;connectable=0;fillColor=none;top=0;left=0;bottom=0;right=0;overflow=hidden;" parent="63" vertex="1">
                    <mxGeometry width="53" height="30" as="geometry"/>
                </mxCell>
                <mxCell id="65" value="system_config" style="shape=partialRectangle;html=1;whiteSpace=wrap;connectable=0;fillColor=none;top=0;left=0;bottom=0;right=0;align=left;spacingLeft=6;overflow=hidden;" parent="63" vertex="1">
                    <mxGeometry x="53" width="113" height="30" as="geometry"/>
                </mxCell>
                <mxCell id="66" value="查看当前配置文件" style="shape=partialRectangle;html=1;whiteSpace=wrap;connectable=0;fillColor=none;top=0;left=0;bottom=0;right=0;align=left;spacingLeft=6;overflow=hidden;" parent="63" vertex="1">
                    <mxGeometry x="166" width="244" height="30" as="geometry"/>
                </mxCell>
                <mxCell id="166" value="0" style="shape=partialRectangle;html=1;whiteSpace=wrap;connectable=0;fillColor=none;top=0;left=0;bottom=0;right=0;align=left;spacingLeft=6;overflow=hidden;" parent="63" vertex="1">
                    <mxGeometry x="410" width="94" height="30" as="geometry"/>
                </mxCell>
                <mxCell id="183" value="" style="shape=partialRectangle;html=1;whiteSpace=wrap;collapsible=0;dropTarget=0;pointerEvents=0;fillColor=none;top=0;left=0;bottom=0;right=0;points=[[0,0.5],[1,0.5]];portConstraint=eastwest;" parent="21" vertex="1">
                    <mxGeometry y="150" width="504" height="30" as="geometry"/>
                </mxCell>
                <mxCell id="184" value="POST" style="shape=partialRectangle;html=1;whiteSpace=wrap;connectable=0;fillColor=none;top=0;left=0;bottom=0;right=0;overflow=hidden;" parent="183" vertex="1">
                    <mxGeometry width="53" height="30" as="geometry"/>
                </mxCell>
                <mxCell id="185" value="system_log" style="shape=partialRectangle;html=1;whiteSpace=wrap;connectable=0;fillColor=none;top=0;left=0;bottom=0;right=0;align=left;spacingLeft=6;overflow=hidden;" parent="183" vertex="1">
                    <mxGeometry x="53" width="113" height="30" as="geometry"/>
                </mxCell>
                <mxCell id="186" value="查看系统日志" style="shape=partialRectangle;html=1;whiteSpace=wrap;connectable=0;fillColor=none;top=0;left=0;bottom=0;right=0;align=left;spacingLeft=6;overflow=hidden;" parent="183" vertex="1">
                    <mxGeometry x="166" width="244" height="30" as="geometry"/>
                </mxCell>
                <mxCell id="187" value="0" style="shape=partialRectangle;html=1;whiteSpace=wrap;connectable=0;fillColor=none;top=0;left=0;bottom=0;right=0;align=left;spacingLeft=6;overflow=hidden;" parent="183" vertex="1">
                    <mxGeometry x="410" width="94" height="30" as="geometry"/>
                </mxCell>
                <mxCell id="28" value="" style="shape=partialRectangle;html=1;whiteSpace=wrap;collapsible=0;dropTarget=0;pointerEvents=0;fillColor=none;top=0;left=0;bottom=0;right=0;points=[[0,0.5],[1,0.5]];portConstraint=eastwest;" parent="21" vertex="1">
                    <mxGeometry y="180" width="504" height="30" as="geometry"/>
                </mxCell>
                <mxCell id="29" value="POST" style="shape=partialRectangle;html=1;whiteSpace=wrap;connectable=0;fillColor=none;top=0;left=0;bottom=0;right=0;overflow=hidden;" parent="28" vertex="1">
                    <mxGeometry width="53" height="30" as="geometry"/>
                </mxCell>
                <mxCell id="30" value="rec_list" style="shape=partialRectangle;html=1;whiteSpace=wrap;connectable=0;fillColor=none;top=0;left=0;bottom=0;right=0;align=left;spacingLeft=6;overflow=hidden;" parent="28" vertex="1">
                    <mxGeometry x="53" width="113" height="30" as="geometry"/>
                </mxCell>
                <mxCell id="42" value="获取当前录制中的队列简报" style="shape=partialRectangle;html=1;whiteSpace=wrap;connectable=0;fillColor=none;top=0;left=0;bottom=0;right=0;align=left;spacingLeft=6;overflow=hidden;" parent="28" vertex="1">
                    <mxGeometry x="166" width="244" height="30" as="geometry"/>
                </mxCell>
                <mxCell id="167" value="0" style="shape=partialRectangle;html=1;whiteSpace=wrap;connectable=0;fillColor=none;top=0;left=0;bottom=0;right=0;align=left;spacingLeft=6;overflow=hidden;" parent="28" vertex="1">
                    <mxGeometry x="410" width="94" height="30" as="geometry"/>
                </mxCell>
                <mxCell id="43" value="" style="shape=partialRectangle;html=1;whiteSpace=wrap;collapsible=0;dropTarget=0;pointerEvents=0;fillColor=none;top=0;left=0;bottom=0;right=0;points=[[0,0.5],[1,0.5]];portConstraint=eastwest;" parent="21" vertex="1">
                    <mxGeometry y="210" width="504" height="30" as="geometry"/>
                </mxCell>
                <mxCell id="44" value="POST" style="shape=partialRectangle;html=1;whiteSpace=wrap;connectable=0;fillColor=none;top=0;left=0;bottom=0;right=0;overflow=hidden;" parent="43" vertex="1">
                    <mxGeometry width="53" height="30" as="geometry"/>
                </mxCell>
                <mxCell id="45" value="rec_info" style="shape=partialRectangle;html=1;whiteSpace=wrap;connectable=0;fillColor=none;top=0;left=0;bottom=0;right=0;align=left;spacingLeft=6;overflow=hidden;" parent="43" vertex="1">
                    <mxGeometry x="53" width="113" height="30" as="geometry"/>
                </mxCell>
                <mxCell id="46" value="根据录制任务GUID获取任务详情" style="shape=partialRectangle;html=1;whiteSpace=wrap;connectable=0;fillColor=none;top=0;left=0;bottom=0;right=0;align=left;spacingLeft=6;overflow=hidden;" parent="43" vertex="1">
                    <mxGeometry x="166" width="244" height="30" as="geometry"/>
                </mxCell>
                <mxCell id="168" value="1" style="shape=partialRectangle;html=1;whiteSpace=wrap;connectable=0;fillColor=none;top=0;left=0;bottom=0;right=0;align=left;spacingLeft=6;overflow=hidden;" parent="43" vertex="1">
                    <mxGeometry x="410" width="94" height="30" as="geometry"/>
                </mxCell>
                <mxCell id="59" value="" style="shape=partialRectangle;html=1;whiteSpace=wrap;collapsible=0;dropTarget=0;pointerEvents=0;fillColor=none;top=0;left=0;bottom=0;right=0;points=[[0,0.5],[1,0.5]];portConstraint=eastwest;" parent="21" vertex="1">
                    <mxGeometry y="240" width="504" height="30" as="geometry"/>
                </mxCell>
                <mxCell id="60" value="POST" style="shape=partialRectangle;html=1;whiteSpace=wrap;connectable=0;fillColor=none;top=0;left=0;bottom=0;right=0;overflow=hidden;" parent="59" vertex="1">
                    <mxGeometry width="53" height="30" as="geometry"/>
                </mxCell>
                <mxCell id="61" value="rec_cancel" style="shape=partialRectangle;html=1;whiteSpace=wrap;connectable=0;fillColor=none;top=0;left=0;bottom=0;right=0;align=left;spacingLeft=6;overflow=hidden;" parent="59" vertex="1">
                    <mxGeometry x="53" width="113" height="30" as="geometry"/>
                </mxCell>
                <mxCell id="62" value="根据录制任务GUID取消相应任务" style="shape=partialRectangle;html=1;whiteSpace=wrap;connectable=0;fillColor=none;top=0;left=0;bottom=0;right=0;align=left;spacingLeft=6;overflow=hidden;" parent="59" vertex="1">
                    <mxGeometry x="166" width="244" height="30" as="geometry"/>
                </mxCell>
                <mxCell id="169" value="1" style="shape=partialRectangle;html=1;whiteSpace=wrap;connectable=0;fillColor=none;top=0;left=0;bottom=0;right=0;align=left;spacingLeft=6;overflow=hidden;" parent="59" vertex="1">
                    <mxGeometry x="410" width="94" height="30" as="geometry"/>
                </mxCell>
                <mxCell id="47" value="" style="shape=partialRectangle;html=1;whiteSpace=wrap;collapsible=0;dropTarget=0;pointerEvents=0;fillColor=none;top=0;left=0;bottom=0;right=0;points=[[0,0.5],[1,0.5]];portConstraint=eastwest;" parent="21" vertex="1">
                    <mxGeometry y="270" width="504" height="30" as="geometry"/>
                </mxCell>
                <mxCell id="48" value="POST" style="shape=partialRectangle;html=1;whiteSpace=wrap;connectable=0;fillColor=none;top=0;left=0;bottom=0;right=0;overflow=hidden;" parent="47" vertex="1">
                    <mxGeometry width="53" height="30" as="geometry"/>
                </mxCell>
                <mxCell id="49" value="room_add" style="shape=partialRectangle;html=1;whiteSpace=wrap;connectable=0;fillColor=none;top=0;left=0;bottom=0;right=0;align=left;spacingLeft=6;overflow=hidden;" parent="47" vertex="1">
                    <mxGeometry x="53" width="113" height="30" as="geometry"/>
                </mxCell>
                <mxCell id="50" value="增加配置文件中监听的房间" style="shape=partialRectangle;html=1;whiteSpace=wrap;connectable=0;fillColor=none;top=0;left=0;bottom=0;right=0;align=left;spacingLeft=6;overflow=hidden;" parent="47" vertex="1">
                    <mxGeometry x="166" width="244" height="30" as="geometry"/>
                </mxCell>
                <mxCell id="170" value="6" style="shape=partialRectangle;html=1;whiteSpace=wrap;connectable=0;fillColor=none;top=0;left=0;bottom=0;right=0;align=left;spacingLeft=6;overflow=hidden;" parent="47" vertex="1">
                    <mxGeometry x="410" width="94" height="30" as="geometry"/>
                </mxCell>
                <mxCell id="51" value="" style="shape=partialRectangle;html=1;whiteSpace=wrap;collapsible=0;dropTarget=0;pointerEvents=0;fillColor=none;top=0;left=0;bottom=0;right=0;points=[[0,0.5],[1,0.5]];portConstraint=eastwest;" parent="21" vertex="1">
                    <mxGeometry y="300" width="504" height="30" as="geometry"/>
                </mxCell>
                <mxCell id="52" value="POST" style="shape=partialRectangle;html=1;whiteSpace=wrap;connectable=0;fillColor=none;top=0;left=0;bottom=0;right=0;overflow=hidden;" parent="51" vertex="1">
                    <mxGeometry width="53" height="30" as="geometry"/>
                </mxCell>
                <mxCell id="53" value="room_delete" style="shape=partialRectangle;html=1;whiteSpace=wrap;connectable=0;fillColor=none;top=0;left=0;bottom=0;right=0;align=left;spacingLeft=6;overflow=hidden;" parent="51" vertex="1">
                    <mxGeometry x="53" width="113" height="30" as="geometry"/>
                </mxCell>
                <mxCell id="54" value="删除配置文件中监听的房间" style="shape=partialRectangle;html=1;whiteSpace=wrap;connectable=0;fillColor=none;top=0;left=0;bottom=0;right=0;align=left;spacingLeft=6;overflow=hidden;" parent="51" vertex="1">
                    <mxGeometry x="166" width="244" height="30" as="geometry"/>
                </mxCell>
                <mxCell id="171" value="2" style="shape=partialRectangle;html=1;whiteSpace=wrap;connectable=0;fillColor=none;top=0;left=0;bottom=0;right=0;align=left;spacingLeft=6;overflow=hidden;" parent="51" vertex="1">
                    <mxGeometry x="410" width="94" height="30" as="geometry"/>
                </mxCell>
                <mxCell id="100" value="" style="shape=partialRectangle;html=1;whiteSpace=wrap;collapsible=0;dropTarget=0;pointerEvents=0;fillColor=none;top=0;left=0;bottom=0;right=0;points=[[0,0.5],[1,0.5]];portConstraint=eastwest;" parent="21" vertex="1">
                    <mxGeometry y="330" width="504" height="30" as="geometry"/>
                </mxCell>
                <mxCell id="101" value="POST" style="shape=partialRectangle;html=1;whiteSpace=wrap;connectable=0;fillColor=none;top=0;left=0;bottom=0;right=0;overflow=hidden;" parent="100" vertex="1">
                    <mxGeometry width="53" height="30" as="geometry"/>
                </mxCell>
                <mxCell id="102" value="room_status" style="shape=partialRectangle;html=1;whiteSpace=wrap;connectable=0;fillColor=none;top=0;left=0;bottom=0;right=0;align=left;spacingLeft=6;overflow=hidden;" parent="100" vertex="1">
                    <mxGeometry x="53" width="113" height="30" as="geometry"/>
                </mxCell>
                <mxCell id="103" value="修改房间的自动录制开关配置" style="shape=partialRectangle;html=1;whiteSpace=wrap;connectable=0;fillColor=none;top=0;left=0;bottom=0;right=0;align=left;spacingLeft=6;overflow=hidden;" parent="100" vertex="1">
                    <mxGeometry x="166" width="244" height="30" as="geometry"/>
                </mxCell>
                <mxCell id="172" value="3" style="shape=partialRectangle;html=1;whiteSpace=wrap;connectable=0;fillColor=none;top=0;left=0;bottom=0;right=0;align=left;spacingLeft=6;overflow=hidden;" parent="100" vertex="1">
                    <mxGeometry x="410" width="94" height="30" as="geometry"/>
                </mxCell>
                <mxCell id="157" value="" style="shape=partialRectangle;html=1;whiteSpace=wrap;collapsible=0;dropTarget=0;pointerEvents=0;fillColor=none;top=0;left=0;bottom=0;right=0;points=[[0,0.5],[1,0.5]];portConstraint=eastwest;" parent="21" vertex="1">
                    <mxGeometry y="360" width="504" height="30" as="geometry"/>
                </mxCell>
                <mxCell id="158" value="POST" style="shape=partialRectangle;html=1;whiteSpace=wrap;connectable=0;fillColor=none;top=0;left=0;bottom=0;right=0;overflow=hidden;" parent="157" vertex="1">
                    <mxGeometry width="53" height="30" as="geometry"/>
                </mxCell>
                <mxCell id="159" value="room_list" style="shape=partialRectangle;html=1;whiteSpace=wrap;connectable=0;fillColor=none;top=0;left=0;bottom=0;right=0;align=left;spacingLeft=6;overflow=hidden;" parent="157" vertex="1">
                    <mxGeometry x="53" width="113" height="30" as="geometry"/>
                </mxCell>
                <mxCell id="160" value="获取当前房间配置列表" style="shape=partialRectangle;html=1;whiteSpace=wrap;connectable=0;fillColor=none;top=0;left=0;bottom=0;right=0;align=left;spacingLeft=6;overflow=hidden;" parent="157" vertex="1">
                    <mxGeometry x="166" width="244" height="30" as="geometry"/>
                </mxCell>
                <mxCell id="173" value="0" style="shape=partialRectangle;html=1;whiteSpace=wrap;connectable=0;fillColor=none;top=0;left=0;bottom=0;right=0;align=left;spacingLeft=6;overflow=hidden;" parent="157" vertex="1">
                    <mxGeometry x="410" width="94" height="30" as="geometry"/>
                </mxCell>
                <mxCell id="104" value="公共变量" style="shape=table;html=1;whiteSpace=wrap;startSize=30;container=1;collapsible=0;childLayout=tableLayout;fixedRows=1;rowLines=0;fontStyle=1;align=center;fontSize=25;" parent="1" vertex="1">
                    <mxGeometry x="433" y="137" width="503" height="180" as="geometry"/>
                </mxCell>
                <mxCell id="105" value="" style="shape=partialRectangle;html=1;whiteSpace=wrap;collapsible=0;dropTarget=0;pointerEvents=0;fillColor=none;top=0;left=0;bottom=1;right=0;points=[[0,0.5],[1,0.5]];portConstraint=eastwest;" parent="104" vertex="1">
                    <mxGeometry y="30" width="503" height="30" as="geometry"/>
                </mxCell>
                <mxCell id="106" value="参数名" style="shape=partialRectangle;html=1;whiteSpace=wrap;connectable=0;fillColor=none;top=0;left=0;bottom=0;right=0;overflow=hidden;" parent="105" vertex="1">
                    <mxGeometry width="91" height="30" as="geometry"/>
                </mxCell>
                <mxCell id="107" value="格式" style="shape=partialRectangle;html=1;whiteSpace=wrap;connectable=0;fillColor=none;top=0;left=0;bottom=0;right=0;align=center;spacingLeft=6;overflow=hidden;" parent="105" vertex="1">
                    <mxGeometry x="91" width="46" height="30" as="geometry"/>
                </mxCell>
                <mxCell id="108" value="是否必须" style="shape=partialRectangle;html=1;whiteSpace=wrap;connectable=0;fillColor=none;top=0;left=0;bottom=0;right=0;align=center;spacingLeft=6;overflow=hidden;" parent="105" vertex="1">
                    <mxGeometry x="137" width="93" height="30" as="geometry"/>
                </mxCell>
                <mxCell id="174" value="&lt;span&gt;解释&lt;/span&gt;" style="shape=partialRectangle;html=1;whiteSpace=wrap;connectable=0;fillColor=none;top=0;left=0;bottom=0;right=0;align=left;spacingLeft=6;overflow=hidden;" parent="105" vertex="1">
                    <mxGeometry x="230" width="273" height="30" as="geometry"/>
                </mxCell>
                <mxCell id="109" value="" style="shape=partialRectangle;html=1;whiteSpace=wrap;collapsible=0;dropTarget=0;pointerEvents=0;fillColor=none;top=0;left=0;bottom=0;right=0;points=[[0,0.5],[1,0.5]];portConstraint=eastwest;" parent="104" vertex="1">
                    <mxGeometry y="60" width="503" height="30" as="geometry"/>
                </mxCell>
                <mxCell id="110" value="time" style="shape=partialRectangle;html=1;whiteSpace=wrap;connectable=0;fillColor=none;top=0;left=0;bottom=0;right=0;overflow=hidden;" parent="109" vertex="1">
                    <mxGeometry width="91" height="30" as="geometry"/>
                </mxCell>
                <mxCell id="111" value="int" style="shape=partialRectangle;html=1;whiteSpace=wrap;connectable=0;fillColor=none;top=0;left=0;bottom=0;right=0;align=center;spacingLeft=6;overflow=hidden;" parent="109" vertex="1">
                    <mxGeometry x="91" width="46" height="30" as="geometry"/>
                </mxCell>
                <mxCell id="112" value="是" style="shape=partialRectangle;html=1;whiteSpace=wrap;connectable=0;fillColor=none;top=0;left=0;bottom=0;right=0;align=center;spacingLeft=6;overflow=hidden;" parent="109" vertex="1">
                    <mxGeometry x="137" width="93" height="30" as="geometry"/>
                </mxCell>
                <mxCell id="175" value="&lt;span&gt;请求发出时的UTC时间戳，单位为秒，和服务器时间300秒以内的为有效请求(如:1626508097)&lt;/span&gt;" style="shape=partialRectangle;html=1;whiteSpace=wrap;connectable=0;fillColor=none;top=0;left=0;bottom=0;right=0;align=left;spacingLeft=6;overflow=hidden;" parent="109" vertex="1">
                    <mxGeometry x="230" width="273" height="30" as="geometry"/>
                </mxCell>
                <mxCell id="145" value="" style="shape=partialRectangle;html=1;whiteSpace=wrap;collapsible=0;dropTarget=0;pointerEvents=0;fillColor=none;top=0;left=0;bottom=0;right=0;points=[[0,0.5],[1,0.5]];portConstraint=eastwest;" parent="104" vertex="1">
                    <mxGeometry y="90" width="503" height="30" as="geometry"/>
                </mxCell>
                <mxCell id="146" value="code" style="shape=partialRectangle;html=1;whiteSpace=wrap;connectable=0;fillColor=none;top=0;left=0;bottom=0;right=0;overflow=hidden;" parent="145" vertex="1">
                    <mxGeometry width="91" height="30" as="geometry"/>
                </mxCell>
                <mxCell id="147" value="string" style="shape=partialRectangle;html=1;whiteSpace=wrap;connectable=0;fillColor=none;top=0;left=0;bottom=0;right=0;align=center;spacingLeft=6;overflow=hidden;" parent="145" vertex="1">
                    <mxGeometry x="91" width="46" height="30" as="geometry"/>
                </mxCell>
                <mxCell id="148" value="是" style="shape=partialRectangle;html=1;whiteSpace=wrap;connectable=0;fillColor=none;top=0;left=0;bottom=0;right=0;align=center;spacingLeft=6;overflow=hidden;" parent="145" vertex="1">
                    <mxGeometry x="137" width="93" height="30" as="geometry"/>
                </mxCell>
                <mxCell id="176" value="&lt;span&gt;请求的API接口的接口名称(如:system_info)&lt;/span&gt;" style="shape=partialRectangle;html=1;whiteSpace=wrap;connectable=0;fillColor=none;top=0;left=0;bottom=0;right=0;align=left;spacingLeft=6;overflow=hidden;" parent="145" vertex="1">
                    <mxGeometry x="230" width="273" height="30" as="geometry"/>
                </mxCell>
                <mxCell id="199" value="" style="shape=partialRectangle;html=1;whiteSpace=wrap;collapsible=0;dropTarget=0;pointerEvents=0;fillColor=none;top=0;left=0;bottom=0;right=0;points=[[0,0.5],[1,0.5]];portConstraint=eastwest;" vertex="1" parent="104">
                    <mxGeometry y="120" width="503" height="30" as="geometry"/>
                </mxCell>
                <mxCell id="200" value="sig" style="shape=partialRectangle;html=1;whiteSpace=wrap;connectable=0;fillColor=none;top=0;left=0;bottom=0;right=0;overflow=hidden;" vertex="1" parent="199">
                    <mxGeometry width="91" height="30" as="geometry"/>
                </mxCell>
                <mxCell id="201" value="string" style="shape=partialRectangle;html=1;whiteSpace=wrap;connectable=0;fillColor=none;top=0;left=0;bottom=0;right=0;align=center;spacingLeft=6;overflow=hidden;" vertex="1" parent="199">
                    <mxGeometry x="91" width="46" height="30" as="geometry"/>
                </mxCell>
                <mxCell id="202" value="是" style="shape=partialRectangle;html=1;whiteSpace=wrap;connectable=0;fillColor=none;top=0;left=0;bottom=0;right=0;align=center;spacingLeft=6;overflow=hidden;" vertex="1" parent="199">
                    <mxGeometry x="137" width="93" height="30" as="geometry"/>
                </mxCell>
                <mxCell id="203" value="其他变量排序后按照规则拼接过后使用SHA1散列后得到的签名" style="shape=partialRectangle;html=1;whiteSpace=wrap;connectable=0;fillColor=none;top=0;left=0;bottom=0;right=0;align=left;spacingLeft=6;overflow=hidden;" vertex="1" parent="199">
                    <mxGeometry x="230" width="273" height="30" as="geometry"/>
                </mxCell>
                <mxCell id="163" value="" style="edgeStyle=orthogonalEdgeStyle;rounded=0;orthogonalLoop=1;jettySize=auto;html=1;" parent="1" source="161" target="7" edge="1">
                    <mxGeometry relative="1" as="geometry"/>
                </mxCell>
                <mxCell id="161" value="对原始变量集字符串进行排序，排序结果根据变量名称的字母顺序排列，得到加密字符串" style="whiteSpace=wrap;html=1;rounded=0;" parent="1" vertex="1">
                    <mxGeometry x="247" y="371" width="120" height="78" as="geometry"/>
                </mxCell>
                <mxCell id="198" value="注意事项:&lt;br&gt;加密字符串拼接时公共变量sig不参与&lt;br&gt;在拼接加密字符串时应加上变量token，但应当注意，token不应当随请求一起提交，仅在本地参与&lt;br&gt;加密字符串拼接，键值对之间用&amp;amp;分割(如：&quot;code=system_info&amp;amp;time=1234567&quot;)&lt;br&gt;加密中编码以UTF-8为准&lt;br&gt;加密得到的sig在发送时转换成大写" style="text;html=1;strokeColor=none;fillColor=none;align=left;verticalAlign=top;whiteSpace=wrap;rounded=0;" vertex="1" parent="1">
                    <mxGeometry x="433" y="30" width="572" height="96" as="geometry"/>
                </mxCell>
            </root>
        </mxGraphModel>
    </diagram>
</mxfile>